<?xml version="1.0" encoding="UTF-8" standalone="no"?>
<svg width="502px" height="263px" viewBox="0 0 502 263" version="1.1" xmlns="http://www.w3.org/2000/svg" xmlns:xlink="http://www.w3.org/1999/xlink" xmlns:sketch="http://www.bohemiancoding.com/sketch/ns">
    <!-- Generator: Sketch 3.3 (11970) - http://www.bohemiancoding.com/sketch -->
    <title>Square Wellness Center</title>
    <desc>Created with Sketch.</desc>
    <defs></defs>
    <g id="Page-1" stroke="none" stroke-width="1" fill="none" fill-rule="evenodd" sketch:type="MSPage">
        <g id="Square-Wellness-Center" sketch:type="MSLayerGroup">
            <g id="Jewel" transform="translate(160.000000, 0.000000)" sketch:type="MSShapeGroup">
                <rect id="Outer" fill="#333333" x="0" y="0" width="181" height="179" rx="29"></rect>
                <rect id="Middle" fill="#FFFFFF" x="33" y="32.5" width="116" height="113" rx="8"></rect>
                <rect id="Inner" fill="#333333" x="65" y="62.5" width="52" height="53" rx="8"></rect>
            </g>
            <g id="Text" transform="translate(0.000000, 213.000000)" fill="#333333" sketch:type="MSShapeGroup">
                <path d="M60.8665413,1.40009646 L54.5332208,1.40009646 L45.0665733,40.0666848 L33.5999299,1.40009646 L27.9999412,1.40009646 L16.5332978,39.9333517 L7.06665032,1.40009646 L0.666663289,1.40009646 L12.9999716,49 L19.3999587,49 L30.733269,10.4667448 L42.0665794,49 L48.3998999,49 L60.8665413,1.40009646 Z M69.7998565,28.2667087 C70.2665222,22.533387 74.1998476,18.4667285 80.1331689,18.4667285 C85.3331584,18.4667285 89.8664825,21.533389 90.2664817,28.2667087 L69.7998565,28.2667087 Z M63.7332021,31.8000349 C63.7332021,42.0666807 69.9331896,49.7999984 80.6665012,49.7999984 C86.7331555,49.7999984 91.3998127,47.3333367 94.6664728,43.4000113 L90.8664805,39.9333517 C88.3998188,43.0666787 84.8664927,44.6000089 80.9998338,44.6000089 C74.4665137,44.6000089 69.73319,40.1333513 69.6665235,32.6666998 L95.9331369,32.6666998 C95.9998034,32.0000345 96.06647,31.066703 96.06647,30.0000385 C96.06647,20.6000576 89.9331491,13.6000717 80.1998354,13.6000717 C69.8665231,13.6000717 63.7332021,21.533389 63.7332021,31.8000349 L63.7332021,31.8000349 Z M109.666442,49 L109.666442,1.40009646 L104.066454,1.40009646 L104.066454,49 L109.666442,49 Z M125.86641,49 L125.86641,1.40009646 L120.266421,1.40009646 L120.266421,49 L125.86641,49 Z M141.933044,49 L141.933044,29.7333724 C141.933044,23.2000523 146.333035,18.8000612 152.19969,18.8000612 C158.199677,18.8000612 159.733008,23.1333858 159.733008,27.8667095 L159.733008,49 L165.332996,49 L165.332996,26.6000454 C165.332996,18.3333955 160.666339,13.6000717 153.466354,13.6000717 C148.399697,13.6000717 144.399705,16.0000669 141.933044,19.6000596 L141.933044,14.4000701 L136.333055,14.4000701 L136.333055,49 L141.933044,49 Z M179.066302,28.2667087 C179.532967,22.533387 183.466293,18.4667285 189.399614,18.4667285 C194.599604,18.4667285 199.132928,21.533389 199.532927,28.2667087 L179.066302,28.2667087 Z M172.999647,31.8000349 C172.999647,42.0666807 179.199635,49.7999984 189.932946,49.7999984 C195.999601,49.7999984 200.666258,47.3333367 203.932918,43.4000113 L200.132926,39.9333517 C197.666264,43.0666787 194.132938,44.6000089 190.266279,44.6000089 C183.732959,44.6000089 178.999635,40.1333513 178.932969,32.6666998 L205.199582,32.6666998 C205.266249,32.0000345 205.332915,31.066703 205.332915,30.0000385 C205.332915,20.6000576 199.199594,13.6000717 189.466281,13.6000717 C179.132968,13.6000717 172.999647,21.533389 172.999647,31.8000349 L172.999647,31.8000349 Z M210.666238,44.4666759 C213.932898,47.7333359 218.599555,49.7999984 224.46621,49.7999984 C233.066192,49.7999984 238.199515,45.3333408 238.199515,38.8000207 C238.199515,31.6667018 231.999528,29.8667054 225.066209,28.4667083 C220.866217,27.5333768 216.866225,26.7333785 216.866225,23.2000523 C216.866225,19.7333926 220.599551,18.4667285 224.26621,18.4667285 C228.599535,18.4667285 232.132861,20.2000584 234.26619,22.6000535 L237.666183,18.9333943 C234.866189,16.0000669 230.466198,13.6000717 224.46621,13.6000717 C217.73289,13.6000717 211.532903,16.6667322 211.532903,23.7333845 C211.532903,30.5333708 217.266224,32.4667002 223.132879,33.6666977 C229.866199,35.0666949 232.666193,35.7333602 232.666193,39.2000199 C232.666193,43.0666787 229.399533,44.866675 224.599543,44.866675 C220.532884,44.866675 216.932892,43.733344 214.132897,40.8000166 L210.666238,44.4666759 Z M243.666171,44.4666759 C246.932831,47.7333359 251.599488,49.7999984 257.466143,49.7999984 C266.066125,49.7999984 271.199448,45.3333408 271.199448,38.8000207 C271.199448,31.6667018 264.999461,29.8667054 258.066142,28.4667083 C253.86615,27.5333768 249.866158,26.7333785 249.866158,23.2000523 C249.866158,19.7333926 253.599484,18.4667285 257.266143,18.4667285 C261.599468,18.4667285 265.132794,20.2000584 267.266123,22.6000535 L270.666116,18.9333943 C267.866122,16.0000669 263.466131,13.6000717 257.466143,13.6000717 C250.732823,13.6000717 244.532836,16.6667322 244.532836,23.7333845 C244.532836,30.5333708 250.266157,32.4667002 256.132812,33.6666977 C262.866132,35.0666949 265.666126,35.7333602 265.666126,39.2000199 C265.666126,43.0666787 262.399466,44.866675 257.599476,44.866675 C253.532818,44.866675 249.932825,43.733344 247.13283,40.8000166 L243.666171,44.4666759 Z M335.132652,9.86674597 C331.065994,3.93342466 324.866006,0.533431554 317.066022,0.533431554 C303.46605,0.533431554 294.532734,10.9334105 294.532734,25.2000482 C294.532734,39.600019 303.532716,49.8666649 317.332688,49.8666649 C325.132672,49.8666649 331.065994,46.6000049 335.399318,40.466684 L330.599328,37.1333574 C327.332668,41.7333481 323.199343,44.2666763 317.332688,44.2666763 C307.199375,44.2666763 300.866055,36.6666917 300.866055,25.2000482 C300.866055,13.8000713 307.066042,6.1334202 317.066022,6.1334202 C322.86601,6.1334202 327.466001,8.73341494 330.399328,13.2000726 L335.132652,9.86674597 Z M346.599296,28.2667087 C347.065961,22.533387 350.999287,18.4667285 356.932608,18.4667285 C362.132597,18.4667285 366.665922,21.533389 367.065921,28.2667087 L346.599296,28.2667087 Z M340.532641,31.8000349 C340.532641,42.0666807 346.732629,49.7999984 357.46594,49.7999984 C363.532595,49.7999984 368.199252,47.3333367 371.465912,43.4000113 L367.66592,39.9333517 C365.199258,43.0666787 361.665932,44.6000089 357.799273,44.6000089 C351.265953,44.6000089 346.532629,40.1333513 346.465963,32.6666998 L372.732576,32.6666998 C372.799242,32.0000345 372.865909,31.066703 372.865909,30.0000385 C372.865909,20.6000576 366.732588,13.6000717 356.999274,13.6000717 C346.665962,13.6000717 340.532641,21.533389 340.532641,31.8000349 L340.532641,31.8000349 Z M386.332548,49 L386.332548,29.7333724 C386.332548,23.2000523 390.732539,18.8000612 396.599194,18.8000612 C402.599182,18.8000612 404.132512,23.1333858 404.132512,27.8667095 L404.132512,49 L409.732501,49 L409.732501,26.6000454 C409.732501,18.3333955 405.065844,13.6000717 397.865858,13.6000717 C392.799202,13.6000717 388.79921,16.0000669 386.332548,19.6000596 L386.332548,14.4000701 L380.73256,14.4000701 L380.73256,49 L386.332548,49 Z M436.332447,43.6000109 C435.532449,44.2000097 434.065785,44.6666754 432.465788,44.6666754 C429.532461,44.6666754 427.865798,43.1333452 427.865798,39.0666868 L427.865798,19.2667269 L436.999112,19.2667269 L436.999112,14.4000701 L427.865798,14.4000701 L427.865798,1.40009646 L422.265809,1.40009646 L422.265809,14.4000701 L415.799155,14.4000701 L415.799155,19.2667269 L422.265809,19.2667269 L422.265809,39.8666852 C422.265809,46.866671 425.799135,49.7333318 431.532457,49.7333318 C433.999118,49.7333318 436.332447,49.1999996 437.732444,48.2666682 L436.332447,43.6000109 Z M446.599093,28.2667087 C447.065759,22.533387 450.999084,18.4667285 456.932405,18.4667285 C462.132395,18.4667285 466.665719,21.533389 467.065718,28.2667087 L446.599093,28.2667087 Z M440.532439,31.8000349 C440.532439,42.0666807 446.732426,49.7999984 457.465738,49.7999984 C463.532392,49.7999984 468.199049,47.3333367 471.465709,43.4000113 L467.665717,39.9333517 C465.199055,43.0666787 461.665729,44.6000089 457.79907,44.6000089 C451.26575,44.6000089 446.532426,40.1333513 446.46576,32.6666998 L472.732373,32.6666998 C472.79904,32.0000345 472.865706,31.066703 472.865706,30.0000385 C472.865706,20.6000576 466.732385,13.6000717 456.999072,13.6000717 C446.665759,13.6000717 440.532439,21.533389 440.532439,31.8000349 L440.532439,31.8000349 Z M501.065649,14.9334024 C500.198984,14.3334036 498.465654,13.7334048 496.398992,13.7334048 C492.132334,13.7334048 488.265675,16.1333999 486.332346,19.4667265 L486.332346,14.4000701 L480.732357,14.4000701 L480.732357,49 L486.332346,49 L486.332346,31.2000361 C486.332346,23.1333858 490.66567,19.1333939 495.598994,19.1333939 C497.065657,19.1333939 498.732321,19.4667265 499.732319,20.0667253 L501.065649,14.9334024 Z" id="Wellness-Center"></path>
            </g>
        </g>
    </g>
</svg>